<svg width="294" height="61" viewBox="0 0 294 61" fill="none" xmlns="http://www.w3.org/2000/svg">
<path d="M50 12.6535C50.59 14.8935 52.69 14.5635 54.45 14.7035C60.51 15.1935 65.86 13.7136 71.45 13.6036C128.22 12.5236 192.02 12.6635 248.51 15.6435C257.09 16.0935 265.49 15.3836 274.01 17.6636L273.47 20.6935L278.41 22.6935L279 18.6636H282L281 21.6435L289.99 24.6335C283.85 27.2735 278.2 23.8235 272 23.6535L275.99 26.6335L269.02 28.1435C271.08 30.5935 274.31 29.3135 277.12 30.0635C279.04 30.5835 279.02 33.5435 282 32.6535L277.01 35.6335C282.92 37.3235 292.82 40.1235 294 46.6335L287 46.6535L289.99 49.6335C284.87 51.6935 280.16 50.1835 275 49.6535C274.49 52.2435 275.56 51.3935 276.95 52.1535C279.55 53.5735 282.76 53.9135 284.99 55.1535C287.99 56.8035 283.25 56.3535 284 57.6435C286.57 57.9535 289.19 58.7036 291.62 59.5436C294.23 60.4436 294.03 60.8335 291.48 60.6835C283.19 60.1935 273.25 56.7035 264.53 56.6135C193.49 58.4635 121.35 54.3135 50.45 56.6135C36.62 57.0635 23.52 62.3136 11.02 53.1636L15 48.6636L6.02 49.6435C4.51 46.7035 6.74 46.3236 7 43.6636C2.01 44.4636 2.87 39.0236 4 35.6636H0.99L3.99 28.1535L1.99 27.1636L3.99 24.6736L0 23.1435L4.99 17.1535L0 16.6435C1.69 12.3335 7.22 8.48355 11.32 6.47355C19.34 2.53355 41.65 1.0635 51.46 0.613503C93.37 -1.3065 136.6 1.95353 178.55 1.70353C209.41 1.51353 240.62 -2.00645 271.49 1.66355C276.84 2.30355 284.44 3.50354 289 6.15354C288.02 6.81354 285.51 7.24354 284.34 7.27354C271.57 7.50354 258.73 2.3735 245.55 1.6135C207.01 -0.626498 162.79 2.55353 123.46 2.70353C98.97 2.79353 73.85 2.91355 49.54 2.60355C48.55 2.59355 44.96 3.05354 45.01 4.65354C65.9 4.01354 86.72 5.16354 107.55 5.71354C148.78 6.80354 190.07 6.12354 231.54 6.71354C241.31 6.85354 264.07 5.87353 272.58 8.51353C273.87 8.91353 275.15 8.82356 276 10.1736L272.01 10.6835L273 12.1835L286.01 15.6636C282.09 16.5136 277.91 14.9135 274.41 14.7635C262.77 14.2835 253.02 11.0235 242.56 10.6335C233.71 10.3035 223.39 12.5135 214.56 12.7135C180.7 13.4635 145.47 13.1935 112.53 10.4535L90.52 9.67356C89.42 11.3236 95.27 10.7635 96.27 10.9335C97.18 11.0835 99.27 11.3635 99.01 12.6835L50.01 12.6835L50 12.6535ZM165 8.65354H150.5C150.33 8.65354 148.93 10.0035 149 10.6435L155.55 10.7035L165 8.65354Z" fill="black"/>
</svg>
