<svg width="36" height="36" viewBox="0 0 36 36" fill="none" xmlns="http://www.w3.org/2000/svg">
<path d="M26.25 21.495C27.435 21.495 28.695 21.615 30 21.855V24.105C29.07 23.865 27.81 23.745 26.25 23.745C23.4 23.745 21.165 24.24 19.5 25.23V22.695C21.255 21.9 23.505 21.495 26.25 21.495ZM19.5 18.69C21.435 17.895 23.685 17.505 26.25 17.505C27.435 17.505 28.695 17.61 30 17.85V20.1C29.07 19.86 27.81 19.74 26.25 19.74C23.4 19.74 21.165 20.25 19.5 21.225V18.69ZM26.25 15.75C23.4 15.75 21.165 16.23 19.5 17.25V14.76C21.345 13.92 23.595 13.5 26.25 13.5C27.435 13.5 28.695 13.62 30 13.845V16.17C28.89 15.885 27.615 15.75 26.25 15.75ZM31.5 27.75V10.5C29.94 10.005 28.185 9.75 26.25 9.75C23.175 9.75 20.43 10.5 18 12V29.25C20.43 27.75 23.175 27 26.25 27C28.035 27 29.79 27.24 31.5 27.75ZM26.25 6.75C29.775 6.75 32.535 7.5 34.5 9V30.84C34.5 31.02 34.425 31.2 34.26 31.365C34.095 31.5 33.915 31.62 33.75 31.62C33.585 31.62 33.465 31.59 33.375 31.545C31.455 30.51 29.07 30 26.25 30C23.175 30 20.43 30.75 18 32.25C15.99 30.75 13.245 30 9.75 30C7.26 30 4.875 30.54 2.625 31.605C2.58 31.62 2.52 31.62 2.445 31.65C2.385 31.665 2.325 31.68 2.25 31.68C2.085 31.68 1.905 31.62 1.74 31.5C1.575 31.335 1.5 31.17 1.5 30.975V9C3.51 7.5 6.27 6.75 9.75 6.75C13.245 6.75 15.99 7.5 18 9C20.01 7.5 22.755 6.75 26.25 6.75Z" fill="black"/>
</svg>
