<svg width="36" height="36" viewBox="0 0 36 36" fill="none" xmlns="http://www.w3.org/2000/svg">
<path d="M24.75 15.75H4.5C3.67157 15.75 3 16.4216 3 17.25V29.25C3 30.0784 3.67157 30.75 4.5 30.75H24.75C25.5784 30.75 26.25 30.0784 26.25 29.25V17.25C26.25 16.4216 25.5784 15.75 24.75 15.75Z" stroke="black" stroke-width="3"/>
<path d="M21.75 20.25H15V26.25H21.75V20.25Z" stroke="black" stroke-width="3" stroke-linecap="round" stroke-linejoin="round"/>
<path d="M20.25 13.5C22.3211 13.5 24 11.8211 24 9.75C24 7.67893 22.3211 6 20.25 6C18.1789 6 16.5 7.67893 16.5 9.75C16.5 11.8211 18.1789 13.5 20.25 13.5Z" stroke="black" stroke-width="3" stroke-linecap="round" stroke-linejoin="round"/>
<path d="M9.75 13.5C11.8211 13.5 13.5 11.8211 13.5 9.75C13.5 7.67893 11.8211 6 9.75 6C7.67893 6 6 7.67893 6 9.75C6 11.8211 7.67893 13.5 9.75 13.5Z" stroke="black" stroke-width="3" stroke-linecap="round" stroke-linejoin="round"/>
<path d="M26.25 26.25L33 29.25V17.25L26.25 20.25" stroke="black" stroke-width="3" stroke-linecap="round" stroke-linejoin="round"/>
</svg>
