<svg width="36" height="36" viewBox="0 0 36 36" fill="none" xmlns="http://www.w3.org/2000/svg">
<path d="M24 13.5H12C7.02944 13.5 3 17.5294 3 22.5C3 27.4706 7.02944 31.5 12 31.5H24C28.9706 31.5 33 27.4706 33 22.5C33 17.5294 28.9706 13.5 24 13.5Z" stroke="black" stroke-width="3" stroke-linejoin="round"/>
<path d="M12 19.5V25.5" stroke="black" stroke-width="3" stroke-linecap="round" stroke-linejoin="round"/>
<path d="M9 22.5H15" stroke="black" stroke-width="3" stroke-linecap="round" stroke-linejoin="round"/>
<path d="M18 12V7.28571H24V3" stroke="black" stroke-width="3" stroke-linecap="round" stroke-linejoin="round"/>
<path d="M24 25.5C25.6569 25.5 27 24.1569 27 22.5C27 20.8431 25.6569 19.5 24 19.5C22.3431 19.5 21 20.8431 21 22.5C21 24.1569 22.3431 25.5 24 25.5Z" stroke="black" stroke-width="3" stroke-linejoin="round"/>
</svg>
